<svg class="diagram-root" style="background: #f5f6f6" xmlns="http://www.w3.org/2000/svg" xmlns:xlink="http://www.w3.org/1999/xlink"><style>.diagram-root { font-family: "Helvetica Neue", sans-serif; font-size: 12px; } .t { overflow: visible; } .t-bg { y: 40; fill: #fff;   } .th { fill: #005aa0;   } .tht { fill: #fff; font-size: 14px;  } .tf { fill: #323c46; overflow: visible; } .tf.pk { fill: #005aa0; font-weight: bold; } .tf.fk { font-weight: bold; } .ty { fill: #adb1b5; font-weight: normal; text-anchor: end; } .r { fill: transparent; stroke: #c3c3c3; stroke-width: 1; } .l { stroke: 1; } .i { fill: #c2c7ce; stroke: #c2c7ce; } .i.ix { fill: #afb3b6; stroke: #000; } .fa { fill: transparent; overflow: visible; } .fa .bg.hover { fill: #f7f7f7; } .c { cy: 12; r: 4; stroke: #d2d2dc; fill: #d2d2dc; } .hr { fill: transparent; stroke: #323c46; stroke-opacity: 0.035; stroke-width: 13; } .dc { stroke: #fa5a3c; fill: #fa5a3c; } .x { stroke: white; stroke-width: 1; } .hl .th { fill: #1b9bff; } .hl .tht {  } .fhl .bg { fill: #e7f4ff; } .fhls .bg {  } .r.hl { stroke: #1b9bff; } .dim { opacity: 0.25; }</style><g class="drawing-wrapper" transform="translate(-18.333333333333343, 65.11111111111111) scale(1,1)"><g class="rs"><path d="M 501.33 276.8888888888889 m -1, 0 a 1,1 0 1,0 2,0 a 1,1 0 1,0 -2,0 M 501.33 276.8888888888889 m -0.5, 0 a 0.5,0.5 0 1,0 1,0 a 0.5,0.5 0 1,0 -1,0  M501.33 276.8888888888889 L501.33 276.8888888888889 513.3299999999999 276.8888888888889 M 501.33 282.8888888888889 m -1, 0 a 1,1 0 1,0 2,0 a 1,1 0 1,0 -2,0 M 501.33 282.8888888888889 m -0.5, 0 a 0.5,0.5 0 1,0 1,0 a 0.5,0.5 0 1,0 -1,0  M501.33 282.8888888888889 L501.33 282.8888888888889 508.33 276.8888888888889 501.33 270.8888888888889 M 501.33 270.8888888888889 m -1, 0 a 1,1 0 1,0 2,0 a 1,1 0 1,0 -2,0 M 501.33 270.8888888888889 m -0.5, 0 a 0.5,0.5 0 1,0 1,0 a 0.5,0.5 0 1,0 -1,0  M513.3299999999999 276.8888888888889 Q 536.75 276.8888888888889, 560.17 224.94 T 607 173 M 619 173 m -1, 0 a 1,1 0 1,0 2,0 a 1,1 0 1,0 -2,0 M 619 173 m -0.5, 0 a 0.5,0.5 0 1,0 1,0 a 0.5,0.5 0 1,0 -1,0  M619 173 L619 173 607 173 M613 179 L613 179 613 167" id="h1139284389" class="r"></path><path d="M 361.333333333333 301.8888888888889 m -1, 0 a 1,1 0 1,0 2,0 a 1,1 0 1,0 -2,0 M 361.333333333333 301.8888888888889 m -0.5, 0 a 0.5,0.5 0 1,0 1,0 a 0.5,0.5 0 1,0 -1,0  M361.333333333333 301.8888888888889 L361.333333333333 301.8888888888889 349.333333333333 301.8888888888889 M 361.333333333333 307.8888888888889 m -1, 0 a 1,1 0 1,0 2,0 a 1,1 0 1,0 -2,0 M 361.333333333333 307.8888888888889 m -0.5, 0 a 0.5,0.5 0 1,0 1,0 a 0.5,0.5 0 1,0 -1,0  M361.333333333333 307.8888888888889 L361.333333333333 307.8888888888889 354.333333333333 301.8888888888889 361.333333333333 295.8888888888889 M 361.333333333333 295.8888888888889 m -1, 0 a 1,1 0 1,0 2,0 a 1,1 0 1,0 -2,0 M 361.333333333333 295.8888888888889 m -0.5, 0 a 0.5,0.5 0 1,0 1,0 a 0.5,0.5 0 1,0 -1,0  M349.333333333333 301.8888888888889 Q 323.58 301.8888888888889, 297.83 262 T 246.33 222.11111111111126 M 234.33 222.11111111111126 m -1, 0 a 1,1 0 1,0 2,0 a 1,1 0 1,0 -2,0 M 234.33 222.11111111111126 m -0.5, 0 a 0.5,0.5 0 1,0 1,0 a 0.5,0.5 0 1,0 -1,0  M234.33 222.11111111111126 L234.33 222.11111111111126 246.33 222.11111111111126 M240.33 228.11111111111126 L240.33 228.11111111111126 240.33 216.11111111111126" id="h1607168654" class="r"></path><path d="M 361.7777777777781 148.33333333333303 m -1, 0 a 1,1 0 1,0 2,0 a 1,1 0 1,0 -2,0 M 361.7777777777781 148.33333333333303 m -0.5, 0 a 0.5,0.5 0 1,0 1,0 a 0.5,0.5 0 1,0 -1,0  M361.7777777777781 148.33333333333303 L361.7777777777781 148.33333333333303 349.7777777777781 148.33333333333303 M 361.7777777777781 154.33333333333303 m -1, 0 a 1,1 0 1,0 2,0 a 1,1 0 1,0 -2,0 M 361.7777777777781 154.33333333333303 m -0.5, 0 a 0.5,0.5 0 1,0 1,0 a 0.5,0.5 0 1,0 -1,0  M361.7777777777781 154.33333333333303 L361.7777777777781 154.33333333333303 354.7777777777781 148.33333333333303 361.7777777777781 142.33333333333303 M 361.7777777777781 142.33333333333303 m -1, 0 a 1,1 0 1,0 2,0 a 1,1 0 1,0 -2,0 M 361.7777777777781 142.33333333333303 m -0.5, 0 a 0.5,0.5 0 1,0 1,0 a 0.5,0.5 0 1,0 -1,0  M349.7777777777781 148.33333333333303 Q 323.91 148.33333333333303, 298.05 185.22 T 246.33 222.11111111111126 M 234.33 222.11111111111126 m -1, 0 a 1,1 0 1,0 2,0 a 1,1 0 1,0 -2,0 M 234.33 222.11111111111126 m -0.5, 0 a 0.5,0.5 0 1,0 1,0 a 0.5,0.5 0 1,0 -1,0  M234.33 222.11111111111126 L234.33 222.11111111111126 246.33 222.11111111111126 M240.33 228.11111111111126 L240.33 228.11111111111126 240.33 216.11111111111126" id="h1397587031" class="r"></path><path d="M 501.78 173.33333333333303 m -1, 0 a 1,1 0 1,0 2,0 a 1,1 0 1,0 -2,0 M 501.78 173.33333333333303 m -0.5, 0 a 0.5,0.5 0 1,0 1,0 a 0.5,0.5 0 1,0 -1,0  M501.78 173.33333333333303 L501.78 173.33333333333303 513.78 173.33333333333303 M507.78 179.33333333333303 L507.78 179.33333333333303 507.78 167.33333333333303 M513.78 173.33333333333303 Q 537.09 173.33333333333303, 560.39 173.17 T 607 173 M 619 173 m -1, 0 a 1,1 0 1,0 2,0 a 1,1 0 1,0 -2,0 M 619 173 m -0.5, 0 a 0.5,0.5 0 1,0 1,0 a 0.5,0.5 0 1,0 -1,0  M619 173 L619 173 607 173 M613 179 L613 179 613 167" id="h2286254435" class="r"></path><path d="M 619 198 m -1, 0 a 1,1 0 1,0 2,0 a 1,1 0 1,0 -2,0 M 619 198 m -0.5, 0 a 0.5,0.5 0 1,0 1,0 a 0.5,0.5 0 1,0 -1,0  M619 198 L619 198 607 198 M 619 204 m -1, 0 a 1,1 0 1,0 2,0 a 1,1 0 1,0 -2,0 M 619 204 m -0.5, 0 a 0.5,0.5 0 1,0 1,0 a 0.5,0.5 0 1,0 -1,0  M619 204 L619 204 612 198 619 192 M 619 192 m -1, 0 a 1,1 0 1,0 2,0 a 1,1 0 1,0 -2,0 M 619 192 m -0.5, 0 a 0.5,0.5 0 1,0 1,0 a 0.5,0.5 0 1,0 -1,0  M607 198 Q 586 198, 565 301.33 T 523 404.6666666666665 M 511 404.6666666666665 m -1, 0 a 1,1 0 1,0 2,0 a 1,1 0 1,0 -2,0 M 511 404.6666666666665 m -0.5, 0 a 0.5,0.5 0 1,0 1,0 a 0.5,0.5 0 1,0 -1,0  M511 404.6666666666665 L511 404.6666666666665 523 404.6666666666665 M517 410.6666666666665 L517 410.6666666666665 517 398.6666666666665" id="h1537058300" class="r"></path><path d="M 484.89 21.888888888888886 m -1, 0 a 1,1 0 1,0 2,0 a 1,1 0 1,0 -2,0 M 484.89 21.888888888888886 m -0.5, 0 a 0.5,0.5 0 1,0 1,0 a 0.5,0.5 0 1,0 -1,0  M484.89 21.888888888888886 L484.89 21.888888888888886 496.89 21.888888888888886 M490.89 27.888888888888886 L490.89 27.888888888888886 490.89 15.888888888888886 M496.89 21.888888888888886 Q 524.42 21.888888888888886, 551.94 97.44 T 607 173 M 619 173 m -1, 0 a 1,1 0 1,0 2,0 a 1,1 0 1,0 -2,0 M 619 173 m -0.5, 0 a 0.5,0.5 0 1,0 1,0 a 0.5,0.5 0 1,0 -1,0  M619 173 L619 173 607 173 M613 179 L613 179 613 167" id="h3177548053" class="r"></path></g><g class="hrs"></g><g class="ts"><svg width="140" height="100" x="361.7777777777781" y="91.33333333333302" id="h1676682957" class="t"><rect height="40" width="140" class="th"></rect><text x="13" y="25" class="tht">dept_manager</text><rect height="60" width="140" class="t-bg" y="40"></rect><text x="13" y="61" class="tf fk">dept_no<tspan x="127" class="ty">CHAR(4)</tspan></text><text x="13" y="86" class="tf fk">emp_no<tspan x="127" class="ty">INT</tspan></text></svg><svg width="111" height="100" x="373.8888888888886" y="-35.111111111111114" id="h2472833127" class="t"><rect height="40" width="111" class="th"></rect><text x="13" y="25" class="tht">salaries</text><rect height="60" width="111" class="t-bg" y="40"></rect><text x="13" y="61" class="tf fk">emp_no<tspan x="98" class="ty">INT</tspan></text><text x="13" y="86" class="tf">salary<tspan x="98" class="ty">INT</tspan></text></svg><svg width="140" height="100" x="361.333333333333" y="219.88888888888889" id="h1090417462" class="t"><rect height="40" width="140" class="th"></rect><text x="13" y="25" class="tht">dept_emp</text><rect height="60" width="140" class="t-bg" y="40"></rect><text x="13" y="61" class="tf fk">emp_no<tspan x="127" class="ty">INT</tspan></text><text x="13" y="86" class="tf fk">dept_no<tspan x="127" class="ty">CHAR(4)</tspan></text></svg><svg width="151" height="100" x="359.9999999999999" y="347.6666666666665" id="h311790747" class="t"><rect height="40" width="151" class="th"></rect><text x="13" y="25" class="tht">titles</text><rect height="60" width="151" class="t-bg" y="40"></rect><text x="13" y="61" class="tf pk">title_id<tspan x="138" class="ty">CHAR(5)</tspan></text><path d="M7,14A2,2 0 0,1 5,12A2,2 0 0,1 7,10A2,2 0 0,1 9,12A2,2 0 0,1 7,14M12.65,10C11.83,7.67 9.61,6 7, 6A6, 6 0 0, 0 1, 12A6, 6 0 0, 0 7, 18C9.61, 18 11.83, 16.33 12.65, 14H17V18H21V14H23V10H12.65Z" class="i pk" transform="translate(69, 48) scale(0.65)"></path><text x="13" y="86" class="tf">title<tspan x="138" class="ty">VARCHAR(255)</tspan></text></svg><svg width="190" height="225" x="619" y="116" id="h1639608377" class="t"><rect height="40" width="190" class="th"></rect><text x="13" y="25" class="tht">employees</text><rect height="185" width="190" class="t-bg" y="40"></rect><text x="13" y="61" class="tf pk">emp_no<tspan x="177" class="ty">INT</tspan></text><path d="M7,14A2,2 0 0,1 5,12A2,2 0 0,1 7,10A2,2 0 0,1 9,12A2,2 0 0,1 7,14M12.65,10C11.83,7.67 9.61,6 7, 6A6, 6 0 0, 0 1, 12A6, 6 0 0, 0 7, 18C9.61, 18 11.83, 16.33 12.65, 14H17V18H21V14H23V10H12.65Z" class="i pk" transform="translate(138, 48) scale(0.65)"></path><text x="13" y="86" class="tf fk">emp_title_id<tspan x="177" class="ty">CHAR(5)</tspan></text><text x="13" y="111" class="tf">birth_date<tspan x="177" class="ty">DATE</tspan></text><text x="13" y="136" class="tf">first_name<tspan x="177" class="ty">VARCHAR(255)</tspan></text><text x="13" y="161" class="tf">last_name<tspan x="177" class="ty">VARCHAR(255)</tspan></text><text x="13" y="186" class="tf">sex<tspan x="177" class="ty">CHAR(1)</tspan></text><text x="13" y="211" class="tf">hire_date<tspan x="177" class="ty">DATE</tspan></text></svg><svg width="194" height="100" x="40.33333333333334" y="165.11111111111126" id="h475896179" class="t"><rect height="40" width="194" class="th"></rect><text x="13" y="25" class="tht">departments</text><rect height="60" width="194" class="t-bg" y="40"></rect><text x="13" y="61" class="tf pk">dept_no<tspan x="181" class="ty">CHAR(4)</tspan></text><path d="M7,14A2,2 0 0,1 5,12A2,2 0 0,1 7,10A2,2 0 0,1 9,12A2,2 0 0,1 7,14M12.65,10C11.83,7.67 9.61,6 7, 6A6, 6 0 0, 0 1, 12A6, 6 0 0, 0 7, 18C9.61, 18 11.83, 16.33 12.65, 14H17V18H21V14H23V10H12.65Z" class="i pk" transform="translate(112, 48) scale(0.65)"></path><text x="13" y="86" class="tf">dept_name<tspan x="181" class="ty">VARCHAR(255)</tspan></text></svg></g></g><text class="qdbd-link" x="10" y="20">www.quickdatabasediagrams.com</text></svg>