<svg class="diagram-root" style="background: #f5f6f6" xmlns="http://www.w3.org/2000/svg" xmlns:xlink="http://www.w3.org/1999/xlink"><style>.diagram-root { font-family: "Helvetica Neue", sans-serif; font-size: 12px; } .t { overflow: visible; } .t-bg { y: 40; fill: #fff;   } .th { fill: #005aa0;   } .tht { fill: #fff; font-size: 14px;  } .tf { fill: #323c46; overflow: visible; } .tf.pk { fill: #005aa0; font-weight: bold; } .tf.fk { font-weight: bold; } .ty { fill: #adb1b5; font-weight: normal; text-anchor: end; } .r { fill: transparent; stroke: #c3c3c3; stroke-width: 1; } .l { stroke: 1; } .i { fill: #c2c7ce; stroke: #c2c7ce; } .i.ix { fill: #afb3b6; stroke: #000; } .fa { fill: transparent; overflow: visible; } .fa .bg.hover { fill: #f7f7f7; } .c { cy: 12; r: 4; stroke: #d2d2dc; fill: #d2d2dc; } .hr { fill: transparent; stroke: #323c46; stroke-opacity: 0.035; stroke-width: 13; } .dc { stroke: #fa5a3c; fill: #fa5a3c; } .x { stroke: white; stroke-width: 1; } .hl .th { fill: #1b9bff; } .hl .tht {  } .fhl .bg { fill: #e7f4ff; } .fhls .bg {  } .r.hl { stroke: #1b9bff; } .dim { opacity: 0.25; }</style><g class="drawing-wrapper" transform="translate(-28, 59) scale(1,1)"><g class="rs"><path d="M 483 155 m -1, 0 a 1,1 0 1,0 2,0 a 1,1 0 1,0 -2,0 M 483 155 m -0.5, 0 a 0.5,0.5 0 1,0 1,0 a 0.5,0.5 0 1,0 -1,0  M483 155 L483 155 495 155 M 483 161 m -1, 0 a 1,1 0 1,0 2,0 a 1,1 0 1,0 -2,0 M 483 161 m -0.5, 0 a 0.5,0.5 0 1,0 1,0 a 0.5,0.5 0 1,0 -1,0  M483 161 L483 161 490 155 483 149 M 483 149 m -1, 0 a 1,1 0 1,0 2,0 a 1,1 0 1,0 -2,0 M 483 149 m -0.5, 0 a 0.5,0.5 0 1,0 1,0 a 0.5,0.5 0 1,0 -1,0  M495 155 Q 529.25 155, 563.5 155.5 T 632 156 M 644 156 m -1, 0 a 1,1 0 1,0 2,0 a 1,1 0 1,0 -2,0 M 644 156 m -0.5, 0 a 0.5,0.5 0 1,0 1,0 a 0.5,0.5 0 1,0 -1,0  M644 156 L644 156 632 156 M638 162 L638 162 638 150" id="h1139284389" class="r"></path><path d="M 343 180 m -1, 0 a 1,1 0 1,0 2,0 a 1,1 0 1,0 -2,0 M 343 180 m -0.5, 0 a 0.5,0.5 0 1,0 1,0 a 0.5,0.5 0 1,0 -1,0  M343 180 L343 180 331 180 M 343 186 m -1, 0 a 1,1 0 1,0 2,0 a 1,1 0 1,0 -2,0 M 343 186 m -0.5, 0 a 0.5,0.5 0 1,0 1,0 a 0.5,0.5 0 1,0 -1,0  M343 186 L343 186 336 180 343 174 M 343 174 m -1, 0 a 1,1 0 1,0 2,0 a 1,1 0 1,0 -2,0 M 343 174 m -0.5, 0 a 0.5,0.5 0 1,0 1,0 a 0.5,0.5 0 1,0 -1,0  M331 180 Q 305 180, 279 180 T 227 180 M 215 180 m -1, 0 a 1,1 0 1,0 2,0 a 1,1 0 1,0 -2,0 M 215 180 m -0.5, 0 a 0.5,0.5 0 1,0 1,0 a 0.5,0.5 0 1,0 -1,0  M215 180 L215 180 227 180 M221 186 L221 186 221 174" id="h1607168654" class="r"></path><path d="M 342 294 m -1, 0 a 1,1 0 1,0 2,0 a 1,1 0 1,0 -2,0 M 342 294 m -0.5, 0 a 0.5,0.5 0 1,0 1,0 a 0.5,0.5 0 1,0 -1,0  M342 294 L342 294 330 294 M 342 300 m -1, 0 a 1,1 0 1,0 2,0 a 1,1 0 1,0 -2,0 M 342 300 m -0.5, 0 a 0.5,0.5 0 1,0 1,0 a 0.5,0.5 0 1,0 -1,0  M342 300 L342 300 335 294 342 288 M 342 288 m -1, 0 a 1,1 0 1,0 2,0 a 1,1 0 1,0 -2,0 M 342 288 m -0.5, 0 a 0.5,0.5 0 1,0 1,0 a 0.5,0.5 0 1,0 -1,0  M330 294 Q 304.25 294, 278.5 237 T 227 180 M 215 180 m -1, 0 a 1,1 0 1,0 2,0 a 1,1 0 1,0 -2,0 M 215 180 m -0.5, 0 a 0.5,0.5 0 1,0 1,0 a 0.5,0.5 0 1,0 -1,0  M215 180 L215 180 227 180 M221 186 L221 186 221 174" id="h1397587031" class="r"></path><path d="M 482 319 m -1, 0 a 1,1 0 1,0 2,0 a 1,1 0 1,0 -2,0 M 482 319 m -0.5, 0 a 0.5,0.5 0 1,0 1,0 a 0.5,0.5 0 1,0 -1,0  M482 319 L482 319 494 319 M488 325 L488 325 488 313 M494 319 Q 528.5 319, 563 237.5 T 632 156 M 644 156 m -1, 0 a 1,1 0 1,0 2,0 a 1,1 0 1,0 -2,0 M 644 156 m -0.5, 0 a 0.5,0.5 0 1,0 1,0 a 0.5,0.5 0 1,0 -1,0  M644 156 L644 156 632 156 M638 162 L638 162 638 150" id="h2286254435" class="r"></path><path d="M 644 181 m -1, 0 a 1,1 0 1,0 2,0 a 1,1 0 1,0 -2,0 M 644 181 m -0.5, 0 a 0.5,0.5 0 1,0 1,0 a 0.5,0.5 0 1,0 -1,0  M644 181 L644 181 632 181 M 644 187 m -1, 0 a 1,1 0 1,0 2,0 a 1,1 0 1,0 -2,0 M 644 187 m -0.5, 0 a 0.5,0.5 0 1,0 1,0 a 0.5,0.5 0 1,0 -1,0  M644 187 L644 187 637 181 644 175 M 644 175 m -1, 0 a 1,1 0 1,0 2,0 a 1,1 0 1,0 -2,0 M 644 175 m -0.5, 0 a 0.5,0.5 0 1,0 1,0 a 0.5,0.5 0 1,0 -1,0  M632 181 Q 599.5 181, 567 307.5 T 502 434 M 490 434 m -1, 0 a 1,1 0 1,0 2,0 a 1,1 0 1,0 -2,0 M 490 434 m -0.5, 0 a 0.5,0.5 0 1,0 1,0 a 0.5,0.5 0 1,0 -1,0  M490 434 L490 434 502 434 M496 440 L496 440 496 428" id="h1537058300" class="r"></path><path d="M 468 28 m -1, 0 a 1,1 0 1,0 2,0 a 1,1 0 1,0 -2,0 M 468 28 m -0.5, 0 a 0.5,0.5 0 1,0 1,0 a 0.5,0.5 0 1,0 -1,0  M468 28 L468 28 480 28 M474 34 L474 34 474 22 M480 28 Q 518 28, 556 92 T 632 156 M 644 156 m -1, 0 a 1,1 0 1,0 2,0 a 1,1 0 1,0 -2,0 M 644 156 m -0.5, 0 a 0.5,0.5 0 1,0 1,0 a 0.5,0.5 0 1,0 -1,0  M644 156 L644 156 632 156 M638 162 L638 162 638 150" id="h3177548053" class="r"></path></g><g class="hrs"></g><g class="ts"><svg width="165" height="100" x="50" y="123" id="h475896179" class="t"><rect height="40" width="165" class="th"></rect><text x="13" y="25" class="tht">departments</text><rect height="60" width="165" class="t-bg" y="40"></rect><text x="13" y="61" class="tf pk">dept_no<tspan x="152" class="ty">CHAR(4)</tspan></text><path d="M7,14A2,2 0 0,1 5,12A2,2 0 0,1 7,10A2,2 0 0,1 9,12A2,2 0 0,1 7,14M12.65,10C11.83,7.67 9.61,6 7, 6A6, 6 0 0, 0 1, 12A6, 6 0 0, 0 7, 18C9.61, 18 11.83, 16.33 12.65, 14H17V18H21V14H23V10H12.65Z" class="i pk" transform="translate(83, 48) scale(0.65)"></path><text x="13" y="86" class="tf">dept_name<tspan x="152" class="ty">VARCHAR</tspan></text></svg><svg width="140" height="100" x="343" y="98" id="h1090417462" class="t"><rect height="40" width="140" class="th"></rect><text x="13" y="25" class="tht">dept_emp</text><rect height="60" width="140" class="t-bg" y="40"></rect><text x="13" y="61" class="tf fk">emp_no<tspan x="127" class="ty">INT</tspan></text><text x="13" y="86" class="tf fk">dept_no<tspan x="127" class="ty">CHAR(4)</tspan></text></svg><svg width="140" height="100" x="342" y="237" id="h1676682957" class="t"><rect height="40" width="140" class="th"></rect><text x="13" y="25" class="tht">dept_manager</text><rect height="60" width="140" class="t-bg" y="40"></rect><text x="13" y="61" class="tf fk">dept_no<tspan x="127" class="ty">CHAR(4)</tspan></text><text x="13" y="86" class="tf fk">emp_no<tspan x="127" class="ty">INT</tspan></text></svg><svg width="163" height="225" x="644" y="99" id="h1639608377" class="t"><rect height="40" width="163" class="th"></rect><text x="13" y="25" class="tht">employees</text><rect height="185" width="163" class="t-bg" y="40"></rect><text x="13" y="61" class="tf pk">emp_no<tspan x="150" class="ty">INT</tspan></text><path d="M7,14A2,2 0 0,1 5,12A2,2 0 0,1 7,10A2,2 0 0,1 9,12A2,2 0 0,1 7,14M12.65,10C11.83,7.67 9.61,6 7, 6A6, 6 0 0, 0 1, 12A6, 6 0 0, 0 7, 18C9.61, 18 11.83, 16.33 12.65, 14H17V18H21V14H23V10H12.65Z" class="i pk" transform="translate(111, 48) scale(0.65)"></path><text x="13" y="86" class="tf fk">emp_title_id<tspan x="150" class="ty">CHAR(5)</tspan></text><text x="13" y="111" class="tf">birth_date<tspan x="150" class="ty">DATE</tspan></text><text x="13" y="136" class="tf">first_name<tspan x="150" class="ty">VARCHAR</tspan></text><text x="13" y="161" class="tf">last_name<tspan x="150" class="ty">VARCHAR</tspan></text><text x="13" y="186" class="tf">sex<tspan x="150" class="ty">CHAR(1)</tspan></text><text x="13" y="211" class="tf">hire_date<tspan x="150" class="ty">DATE</tspan></text></svg><svg width="111" height="100" x="357" y="-29" id="h2472833127" class="t"><rect height="40" width="111" class="th"></rect><text x="13" y="25" class="tht">salaries</text><rect height="60" width="111" class="t-bg" y="40"></rect><text x="13" y="61" class="tf fk">emp_no<tspan x="98" class="ty">INT</tspan></text><text x="13" y="86" class="tf">salary<tspan x="98" class="ty">INT</tspan></text></svg><svg width="151" height="100" x="339" y="377" id="h311790747" class="t"><rect height="40" width="151" class="th"></rect><text x="13" y="25" class="tht">titles</text><rect height="60" width="151" class="t-bg" y="40"></rect><text x="13" y="61" class="tf pk">title_id<tspan x="138" class="ty">CHAR(5)</tspan></text><path d="M7,14A2,2 0 0,1 5,12A2,2 0 0,1 7,10A2,2 0 0,1 9,12A2,2 0 0,1 7,14M12.65,10C11.83,7.67 9.61,6 7, 6A6, 6 0 0, 0 1, 12A6, 6 0 0, 0 7, 18C9.61, 18 11.83, 16.33 12.65, 14H17V18H21V14H23V10H12.65Z" class="i pk" transform="translate(69, 48) scale(0.65)"></path><text x="13" y="86" class="tf">title<tspan x="138" class="ty">VARCHAR</tspan></text></svg></g></g><text class="qdbd-link" x="10" y="20">www.quickdatabasediagrams.com</text></svg>